<svg xmlns="http://www.w3.org/2000/svg" version="1.1" xmlns:xlink="http://www.w3.org/1999/xlink" xmlns:svgjs="http://svgjs.dev/svgjs" width="1440" height="560" preserveAspectRatio="none" viewBox="0 0 1440 560"><g mask="url(&quot;#SvgjsMask1704&quot;)" fill="none"><rect width="1440" height="560" x="0" y="0" fill="url(&quot;#SvgjsLinearGradient1705&quot;)"></rect><path d="M92.56380701852824 200.81099870614082L193.88970146705742 182.94450967044705 176.02321243136367 81.61861522191788 74.69731798283448 99.48510425761164z" fill="rgba(10, 0, 3, 0.4)" class="triangle-float2"></path><path d="M615.255,204.687C655.306,201.913,692.792,184.63,713.582,150.286C735.156,114.646,737.319,71.059,718.709,33.786C697.795,-8.101,662.071,-47.115,615.255,-46.65C568.964,-46.19,538.8,-4.078,515.302,35.808C491.297,76.555,466.031,125.065,490.119,165.763C513.966,206.055,568.547,207.922,615.255,204.687" fill="rgba(10, 0, 3, 0.4)" class="triangle-float2"></path><path d="M525.2669716127499 117.87930456702536L587.5142622201917 217.49579306536685 624.8834601110914 55.632013959583595z" fill="rgba(10, 0, 3, 0.4)" class="triangle-float3"></path><path d="M810.405310080288 321.7420347989596L767.950378260847 226.3866966988988 646.1448370204762 337.7467634780908z" fill="rgba(10, 0, 3, 0.4)" class="triangle-float3"></path><path d="M877.0904690021514 373.68843688139305L976.6719087069346 277.5237583793564 780.9257905001148 274.10699717660987z" fill="rgba(10, 0, 3, 0.4)" class="triangle-float2"></path><path d="M951.3365358540606 72.62980842000086L1071.9713266852002 100.4805443659967 1099.822062631196-20.15424646514289 979.1872718000565-48.00498241113874z" fill="rgba(10, 0, 3, 0.4)" class="triangle-float2"></path></g><defs><mask id="SvgjsMask1704"><rect width="1440" height="560" fill="#ffffff"></rect></mask><linearGradient x1="15.28%" y1="-39.29%" x2="84.72%" y2="139.29%" gradientUnits="userSpaceOnUse" id="SvgjsLinearGradient1705"><stop stop-color="#0e2a47" offset="0"></stop><stop stop-color="rgba(254, 168, 170, 1)" offset="1"></stop></linearGradient><style>
                @keyframes float1 {
                    0%{transform: translate(0, 0)}
                    50%{transform: translate(-10px, 0)}
                    100%{transform: translate(0, 0)}
                }

                .triangle-float1 {
                    animation: float1 5s infinite;
                }

                @keyframes float2 {
                    0%{transform: translate(0, 0)}
                    50%{transform: translate(-5px, -5px)}
                    100%{transform: translate(0, 0)}
                }

                .triangle-float2 {
                    animation: float2 4s infinite;
                }

                @keyframes float3 {
                    0%{transform: translate(0, 0)}
                    50%{transform: translate(0, -10px)}
                    100%{transform: translate(0, 0)}
                }

                .triangle-float3 {
                    animation: float3 6s infinite;
                }
            </style></defs></svg>